<?xml version="1.0" encoding="utf-8"?>
<!-- Generator: Adobe Illustrator 23.1.0, SVG Export Plug-In . SVG Version: 6.00 Build 0)  -->
<svg version="1.1" id="Слой_1" xmlns="http://www.w3.org/2000/svg" xmlns:xlink="http://www.w3.org/1999/xlink" x="0px" y="0px"
	 viewBox="0 0 24 24" style="enable-background:new 0 0 24 24;" xml:space="preserve">
<style type="text/css">
	.st0{fill:#FFFFFF;}
</style>
<g>
	<path class="st0" d="M21.24,17.06c-0.29-0.51-0.59-1.01-0.88-1.52l-0.6-1.03c0.26-0.79,0.4-1.64,0.4-2.52
		c0-0.88-0.14-1.72-0.4-2.51l1.47-2.55c0.05-0.08,0.03-0.15,0.01-0.19l-0.11-0.07l-2.96,0c-1.14-1.31-2.69-2.26-4.46-2.63l-1.56-2.7
		C12.13,1.3,12.09,1.23,12,1.23c-0.09,0-0.13,0.07-0.15,0.11l-1.57,2.73C8.55,4.44,7.03,5.38,5.91,6.66l-2.99,0
		C2.83,6.66,2.78,6.7,2.75,6.74L2.72,6.85l1.57,2.71c-0.24,0.77-0.37,1.58-0.37,2.43c0,0.85,0.13,1.66,0.37,2.43l-1.53,2.64
		c-0.05,0.08-0.03,0.15-0.01,0.19l0.12,0.07h3.05c1.12,1.28,2.63,2.21,4.34,2.59l1.58,2.74c0.02,0.03,0.06,0.11,0.15,0.11h0
		c0.09,0,0.13-0.07,0.16-0.11l1.57-2.71c1.75-0.37,3.3-1.31,4.44-2.62h2.92c0.01,0,0.01,0,0.02,0c0.08,0,0.13-0.04,0.15-0.08
		l0.04-0.11L21.24,17.06z M18.4,17.03c0.09-0.11,0.17-0.22,0.25-0.33l1.32,0c0.01,0,0.01,0,0.02,0c0.08,0,0.13-0.04,0.15-0.08
		l0.04-0.11l-0.72-1.24c0.06-0.13,0.11-0.27,0.17-0.41l0.47,0.82c0.26,0.45,0.52,0.89,0.78,1.34H18.4z M17.76,17.32
		c-1.02,1.09-2.34,1.89-3.84,2.26c-0.07,0.02-0.13,0.04-0.2,0.05c-0.06,0.01-0.13,0.03-0.19,0.04c-0.15,0.03-0.3,0.05-0.46,0.07
		l0.73-1.26c0.17-0.05,0.34-0.1,0.51-0.16c0.07-0.03,0.14-0.05,0.21-0.08c0.07-0.03,0.15-0.06,0.22-0.09
		c0.5-0.22,0.96-0.5,1.39-0.83c0.06-0.05,0.13-0.09,0.19-0.15c0.06-0.05,0.11-0.1,0.16-0.15c0.12-0.11,0.24-0.22,0.36-0.33l1.43,0
		c-0.08,0.11-0.17,0.23-0.26,0.33c-0.04,0.05-0.09,0.1-0.13,0.15C17.85,17.23,17.81,17.27,17.76,17.32z M6.32,17.32
		c-0.04-0.05-0.09-0.1-0.13-0.15c-0.04-0.05-0.09-0.1-0.13-0.15c-0.09-0.11-0.17-0.22-0.26-0.33l1.43,0
		c0.11,0.12,0.23,0.23,0.36,0.33c0.05,0.05,0.11,0.1,0.16,0.15c0.06,0.05,0.13,0.1,0.19,0.15c0.39,0.3,0.82,0.56,1.28,0.78
		c0.08,0.04,0.15,0.08,0.23,0.11c0.07,0.03,0.14,0.05,0.21,0.08c0.17,0.06,0.34,0.12,0.52,0.17l0.73,1.27
		c-0.15-0.02-0.31-0.04-0.46-0.07c-0.07-0.01-0.13-0.04-0.2-0.05c-0.07-0.02-0.13-0.03-0.2-0.05C8.6,19.18,7.32,18.39,6.32,17.32z
		 M3.12,17.03l1.3-2.25c0.05,0.14,0.1,0.28,0.16,0.42c-0.24,0.41-0.48,0.83-0.72,1.24l-0.05,0.11l0.05,0.08
		c0.02,0.03,0.07,0.09,0.19,0.08l1.38,0c0.08,0.11,0.16,0.23,0.25,0.33H3.12z M5.67,6.96c-0.08,0.1-0.16,0.21-0.23,0.31l-1.41,0
		c-0.09,0-0.14,0.04-0.17,0.07l-0.04,0.1l0.76,1.32C4.52,8.91,4.47,9.06,4.41,9.2l-1.3-2.24H5.67z M6.31,6.66
		c1-1.08,2.29-1.87,3.76-2.25c0.07-0.02,0.13-0.04,0.2-0.05c0.07-0.02,0.13-0.04,0.2-0.05c0.15-0.03,0.29-0.05,0.44-0.07l-0.73,1.27
		C10,5.57,9.84,5.62,9.67,5.69C9.6,5.71,9.53,5.73,9.46,5.76C9.38,5.8,9.3,5.84,9.22,5.87c-0.47,0.22-0.9,0.48-1.3,0.79
		c-0.06,0.05-0.13,0.1-0.19,0.15c-0.06,0.05-0.11,0.1-0.16,0.15c-0.11,0.1-0.23,0.2-0.34,0.31l-1.43,0
		c0.08-0.11,0.16-0.21,0.24-0.31c0.04-0.05,0.09-0.1,0.13-0.15C6.22,6.76,6.26,6.71,6.31,6.66z M17.77,6.66
		c0.05,0.05,0.09,0.1,0.13,0.15c0.04,0.05,0.09,0.1,0.13,0.15c0.09,0.1,0.16,0.21,0.24,0.31l-1.43,0c-0.11-0.11-0.22-0.21-0.34-0.31
		c-0.05-0.05-0.11-0.1-0.16-0.15c-0.06-0.05-0.13-0.1-0.19-0.15c-0.43-0.34-0.91-0.62-1.42-0.85c-0.07-0.03-0.15-0.06-0.22-0.09
		c-0.07-0.03-0.14-0.05-0.21-0.08c-0.16-0.06-0.33-0.11-0.49-0.16l-0.73-1.26c0.15,0.02,0.3,0.04,0.44,0.07
		c0.06,0.01,0.13,0.03,0.19,0.04c0.07,0.01,0.13,0.03,0.2,0.05C15.42,4.76,16.75,5.56,17.77,6.66z M20.88,6.96l-1.25,2.16
		c-0.05-0.14-0.11-0.28-0.17-0.42c0.22-0.39,0.45-0.78,0.67-1.17l0.05-0.11l-0.05-0.07c-0.02-0.03-0.06-0.08-0.19-0.07l-1.31,0
		c-0.08-0.11-0.15-0.21-0.23-0.31H20.88z M15.56,17.03c-0.07,0.05-0.15,0.1-0.22,0.15c-0.01,0.01-0.02,0.01-0.02,0.01
		c-0.07,0.04-0.14,0.09-0.22,0.13c-0.02,0.01-0.03,0.02-0.05,0.03c-0.08,0.04-0.16,0.09-0.24,0.13c-0.18,0.09-0.37,0.17-0.56,0.25
		l0.23-0.4l0.08-0.15l0.08-0.15l0.19-0.33h0.42h0.17l0.17,0h0.4C15.85,16.81,15.71,16.92,15.56,17.03z M8.99,17.32
		c-0.03-0.02-0.05-0.03-0.08-0.05c-0.05-0.03-0.11-0.06-0.16-0.1c-0.03-0.02-0.07-0.04-0.1-0.06c-0.04-0.03-0.08-0.06-0.12-0.08
		c-0.15-0.11-0.3-0.22-0.44-0.33H8.4l0.17,0h0.17h0.42l0.19,0.33l0.08,0.15l0.08,0.15l0.21,0.36c-0.19-0.08-0.38-0.17-0.57-0.26
		C9.1,17.39,9.05,17.36,8.99,17.32z M5.23,16.4h-1c0.17-0.29,0.34-0.59,0.51-0.88C4.88,15.83,5.04,16.12,5.23,16.4z M4.91,15.21
		L5.61,14c0.28,0.9,0.75,1.71,1.35,2.4H5.57C5.32,16.03,5.1,15.63,4.91,15.21z M8.51,6.96c0.05-0.04,0.1-0.07,0.15-0.1
		C8.68,6.84,8.7,6.83,8.73,6.81c0.06-0.04,0.13-0.08,0.19-0.12c0.02-0.01,0.03-0.02,0.05-0.03C9.04,6.62,9.1,6.58,9.17,6.55
		c0.18-0.09,0.36-0.18,0.55-0.26L9.51,6.66L9.43,6.81L9.34,6.96L9.16,7.27l-0.4,0H8.59H8.42H8.1C8.23,7.16,8.37,7.06,8.51,6.96z
		 M12,2.94l0.55,0.94c-0.17-0.01-0.33-0.03-0.5-0.03c-0.2,0-0.39,0.02-0.59,0.03L12,2.94z M11.98,2.69L12,2.7v0.01L11.98,2.69z
		 M12.04,4.15c0.23,0,0.45,0.02,0.68,0.03l0.69,1.2c-0.44-0.09-0.9-0.14-1.37-0.14c-0.51,0-1,0.06-1.47,0.17l0.71-1.22
		C11.53,4.17,11.78,4.15,12.04,4.15z M12.04,5.83c0.62,0,1.22,0.09,1.78,0.27l0.33,0.56l0.08,0.15l0.08,0.15l0.18,0.31l-5,0
		l0.18-0.31l0.08-0.15l0.08-0.15l0.31-0.53C10.75,5.94,11.38,5.83,12.04,5.83z M15.04,6.62c0.03,0.02,0.05,0.03,0.08,0.05
		c0.06,0.04,0.12,0.07,0.18,0.11c0.02,0.01,0.04,0.02,0.06,0.04c0.07,0.05,0.15,0.1,0.22,0.15c0.14,0.1,0.28,0.2,0.41,0.31h-0.4
		h-0.17h-0.17l-0.4,0l-0.18-0.31l-0.08-0.15l-0.08-0.15l-0.24-0.41c0.19,0.07,0.37,0.15,0.54,0.24C14.88,6.53,14.96,6.57,15.04,6.62
		z M18.18,11.64c0,0.04,0.01,0.09,0.01,0.13c0,0.05,0.01,0.09,0.01,0.14c0,0.03,0,0.05,0,0.07c0,0.03,0,0.06,0,0.09
		c0,0.05-0.01,0.1-0.01,0.14c0,0.04,0,0.09-0.01,0.13c-0.01,0.2-0.03,0.4-0.06,0.59l-0.17-0.3l-0.08-0.15l-0.09-0.15l-0.21-0.36
		l0.2-0.35l0.09-0.15l0.08-0.15l0.18-0.31C18.14,11.23,18.17,11.43,18.18,11.64z M12.63,19.94l-0.09,0.15L12,21.03l-0.54-0.94
		l-0.09-0.15l-0.09-0.15l-0.71-1.22c0.25,0.06,0.5,0.1,0.76,0.13c0.1,0.27,0.36,0.46,0.66,0.46c0.3,0,0.56-0.19,0.66-0.45
		c0.25-0.02,0.5-0.06,0.75-0.11l-0.69,1.2L12.63,19.94z M12.63,18.11c-0.12-0.23-0.35-0.39-0.63-0.39c-0.27,0-0.5,0.16-0.62,0.38
		c-0.42-0.05-0.83-0.13-1.22-0.26l-0.3-0.52l-0.08-0.15l-0.08-0.15L9.5,16.7l5,0l-0.19,0.33l-0.08,0.15l-0.08,0.15l-0.32,0.55
		C13.44,17.99,13.04,18.07,12.63,18.11z M18.18,9.21c0.07-0.1,0.13-0.21,0.15-0.34c0.04-0.39-0.24-0.74-0.63-0.79
		c-0.06-0.01-0.11,0.01-0.16,0.01c-0.13-0.18-0.27-0.36-0.42-0.53h1.39h0.18h0.17h0.92c-0.16,0.27-0.31,0.54-0.47,0.81
		c-0.03,0.05-0.06,0.1-0.09,0.15c-0.03,0.05-0.06,0.1-0.09,0.16c-0.01,0.01-0.02,0.03-0.02,0.04l-0.67,1.16
		C18.36,9.65,18.28,9.43,18.18,9.21z M17.03,8.4c-0.06,0.09-0.11,0.2-0.12,0.31c-0.04,0.39,0.24,0.74,0.63,0.79
		c0.04,0,0.08-0.01,0.12-0.01c0.16,0.35,0.28,0.72,0.37,1.1l-0.26,0.46l-0.08,0.15l-0.08,0.15l-0.2,0.35l-2.38-4.12h0.4h0.17h0.17
		h0.56C16.57,7.82,16.81,8.1,17.03,8.4z M17.22,11.98l-2.55,4.42H9.33l-2.55-4.42l2.55-4.42h5.34L17.22,11.98z M8.42,7.57h0.17h0.4
		l-2.38,4.13l-0.2-0.35L6.32,11.2l-0.09-0.15l-0.21-0.36c0.09-0.41,0.22-0.81,0.39-1.19c0.01,0,0.01,0,0.02,0
		c0.39,0,0.71-0.32,0.71-0.71c0-0.14-0.05-0.26-0.12-0.37C7.26,8.11,7.5,7.83,7.77,7.57h0.47H8.42z M6.55,8.1
		C6.51,8.09,6.48,8.07,6.44,8.07c-0.39,0-0.71,0.32-0.71,0.71c0,0.17,0.07,0.32,0.17,0.45c-0.11,0.24-0.2,0.48-0.28,0.73l-0.7-1.21
		L4.82,8.6L4.73,8.45L4.22,7.57h1.01H5.4h0.18h1.39C6.82,7.74,6.68,7.91,6.55,8.1z M5.91,12.37c0-0.05-0.01-0.11-0.01-0.16
		c0-0.06-0.01-0.11-0.01-0.17c0-0.02,0-0.04,0-0.06c0-0.02,0-0.03,0-0.05c0-0.06,0.01-0.11,0.01-0.17c0-0.05,0-0.1,0.01-0.16
		c0.01-0.16,0.02-0.31,0.05-0.47l0.11,0.19l0.09,0.15l0.08,0.14l0.2,0.35l-0.21,0.36l-0.08,0.14l-0.09,0.15l-0.11,0.19
		C5.93,12.68,5.92,12.53,5.91,12.37z M6.03,13.28l0.2-0.35l0.09-0.15l0.08-0.15l0.21-0.36l2.38,4.12H8.57H8.41H8.24H7.77
		C6.91,15.57,6.29,14.49,6.03,13.28z M15.76,16.4h-0.17h-0.17h-0.42l2.38-4.13l0.21,0.36l0.09,0.15l0.08,0.15l0.26,0.45
		c-0.27,1.17-0.88,2.21-1.71,3.02H15.76z M18.44,14.09l0.69,1.2c-0.18,0.39-0.39,0.76-0.63,1.11h-1.39
		C17.7,15.73,18.16,14.95,18.44,14.09z M19.31,15.6l0.46,0.8h-0.92C19.02,16.14,19.17,15.88,19.31,15.6z M19.51,14.36
		c-0.02,0.06-0.05,0.12-0.07,0.18c-0.05,0.14-0.1,0.29-0.16,0.43l-0.73-1.27c0.04-0.17,0.08-0.33,0.11-0.5
		c0.01-0.08,0.02-0.15,0.04-0.23c0.01-0.08,0.03-0.15,0.04-0.23c0.03-0.25,0.04-0.49,0.04-0.75c0-0.25-0.02-0.49-0.04-0.74
		c-0.01-0.08-0.02-0.15-0.04-0.23c-0.01-0.08-0.02-0.16-0.04-0.23c-0.03-0.18-0.07-0.35-0.12-0.52l0.73-1.27
		c0.06,0.14,0.11,0.29,0.16,0.44c0.02,0.06,0.05,0.12,0.07,0.18c0.02,0.06,0.04,0.13,0.05,0.2c0.2,0.69,0.31,1.41,0.31,2.16
		c0,0.75-0.11,1.48-0.31,2.17C19.54,14.22,19.53,14.29,19.51,14.36z M12.9,3.9l-0.75-1.29c-0.02-0.03-0.06-0.1-0.15-0.1h0
		c-0.09,0-0.13,0.07-0.17,0.14L11.1,3.92c-0.15,0.02-0.3,0.04-0.44,0.07L12,1.65l1.34,2.32C13.19,3.95,13.05,3.92,12.9,3.9z
		 M4.54,9.72C4.56,9.66,4.59,9.6,4.61,9.53c0.05-0.15,0.1-0.29,0.16-0.44l0.74,1.28c-0.04,0.17-0.08,0.35-0.11,0.53
		c-0.01,0.08-0.03,0.15-0.04,0.23c-0.01,0.08-0.02,0.16-0.03,0.25c-0.02,0.2-0.03,0.4-0.03,0.61c0,0.21,0.01,0.42,0.03,0.62
		c0.01,0.08,0.02,0.16,0.03,0.24c0.01,0.08,0.02,0.15,0.04,0.23c0.03,0.17,0.06,0.35,0.11,0.52l-0.74,1.28
		c-0.06-0.14-0.11-0.28-0.16-0.43c-0.02-0.06-0.04-0.12-0.06-0.18c-0.02-0.07-0.03-0.14-0.05-0.2c-0.18-0.66-0.29-1.35-0.29-2.07
		c0-0.72,0.1-1.4,0.28-2.06C4.51,9.86,4.52,9.79,4.54,9.72z M11.1,20.06l0.47,0.81l0.35,0.59l0.08,0c0.09,0,0.13-0.07,0.15-0.1
		l0.74-1.28c0.15-0.02,0.3-0.05,0.46-0.07L12,22.33l-1.36-2.35C10.8,20.01,10.95,20.04,11.1,20.06z"/>
	<path class="st0" d="M12.09,8.42c-1.97,0-3.57,1.6-3.57,3.57s1.6,3.57,3.57,3.57s3.57-1.6,3.57-3.57S14.06,8.42,12.09,8.42z
		 M12.09,14.97c-1.65,0-2.98-1.34-2.98-2.98C9.1,10.34,10.44,9,12.09,9c1.65,0,2.98,1.34,2.98,2.98
		C15.07,13.63,13.73,14.97,12.09,14.97z"/>
	<circle class="st0" cx="12.09" cy="11.99" r="2.02"/>
</g>
</svg>
